<?xml version="1.0" encoding="UTF-8"?>
<svg version="1.1" xmlns="http://www.w3.org/2000/svg" width="120" height="120">
<path d="M0 0 C9.9 0 19.8 0 30 0 C38.43229688 20.3780508 46.36070538 40.9130911 54.17060852 61.53565979 C57.03299172 69.09332711 59.91464462 76.64335945 62.8125 84.1875 C63.20252197 85.20658447 63.59254395 86.22566895 63.99438477 87.27563477 C65.50355266 91.20218135 67.0245073 95.09420305 68.76171875 98.92578125 C70 102 70 102 70 106 C60.43 106 50.86 106 41 106 C37.86628829 98.47909189 34.77743024 90.97273988 31.84765625 83.375 C31.47042419 82.40058456 31.09319214 81.42616913 30.70452881 80.42222595 C29.48914018 77.28201547 28.27582456 74.1410085 27.0625 71 C25.79562077 67.72544215 24.52820354 64.45109284 23.26078796 61.17674255 C22.41010976 58.97886651 21.55961525 56.78091935 20.70930481 54.582901 C16.75550272 44.36317183 12.78643164 34.14941555 8.8125 23.9375 C8.2129619 22.39648831 7.61343357 20.85547281 7.01391602 19.31445312 C5.67621873 15.87619514 4.33822056 12.43805436 3 9 C-1.42403363 18.13639267 -4.96236153 27.57453267 -8.53060913 37.06826782 C-15.04788804 54.40045579 -21.77900594 71.63078814 -28.72412109 88.79541016 C-30.53739125 93.34975078 -32.27029432 97.93383402 -33.99536133 102.5222168 C-35 105 -35 105 -36 106 C-37.66617115 106.04063832 -39.33388095 106.042721 -41 106 C-33.19447105 85.22811595 -25.16665234 64.54697709 -17.08139038 43.88265991 C-13.37441445 34.40606477 -9.68630809 24.92214979 -6 15.4375 C-5.3882705 13.86384876 -4.77653565 12.29019961 -4.16479492 10.71655273 C-2.77622525 7.14448678 -1.38812026 3.57224074 0 0 Z " fill="#000000" transform="translate(45,7)"/>
</svg>
